PathFileType  4	(X/Y/Z)
DataRate	CameraRate	NumFrames	NumMarkers	Units	OrigDataRate	OrigDataStartFrame	OrigNumFrames
	100.0 	100.0	4	50	mm	100.0	232	265
Frame#	Time	R.Shoulder			R.Clavicle			R.Bicep			R.Elbow			R.Forearm			R.Wrist			L.Shoulder			L.Clavicle			L.Scapula			L.Bicep			L.Elbow			L.Forearm			L.Wrist			R.ASIS			R.Iliac			S2			L.Iliac			L.ASIS			R.TH1			R.TH2			R.TH3			R.Knee			R.SH1			R.SH2			R.SH3			R.SH4			R.Ankle			R.Heel			R.MT5			L.TH1			L.TH2			L.TH3			L.TH4			L.Knee			L.SH1			L.SH2			L.SH3			L.Ankle			L.Heel			L.MT5			R.MKnee			L.MKnee			R.MAnkle			L.MAnkle			R.MElbow			L.MElbow			R.PSIS			L.PSIS			R_HJC			L_HJC			
		X1	Y1	Z1	X2	Y2	Z2	X3	Y3	Z3	X4	Y4	Z4	X5	Y5	Z5	X6	Y6	Z6	X7	Y7	Z7	X8	Y8	Z8	X9	Y9	Z9	X10	Y10	Z10	X11	Y11	Z11	X12	Y12	Z12	X13	Y13	Z13	X14	Y14	Z14	X15	Y15	Z15	X16	Y16	Z16	X17	Y17	Z17	X18	Y18	Z18	X19	Y19	Z19	X20	Y20	Z20	X21	Y21	Z21	X22	Y22	Z22	X23	Y23	Z23	X24	Y24	Z24	X25	Y25	Z25	X26	Y26	Z26	X27	Y27	Z27	X28	Y28	Z28	X29	Y29	Z29	X30	Y30	Z30	X31	Y31	Z31	X32	Y32	Z32	X33	Y33	Z33	X34	Y34	Z34	X35	Y35	Z35	X36	Y36	Z36	X37	Y37	Z37	X38	Y38	Z38	X39	Y39	Z39	X40	Y40	Z40	X41	Y41	Z41	X42	Y42	Z42	X43	Y43	Z43	X44	Y44	Z44	X45	Y45	Z45	X46	Y46	Z46	X47	Y47	Z47	X48	Y48	Z48	X49	Y49	Z49	X50	Y50	Z50	

232	2.31000	274.001	5.250	1424.245	336.576	166.131	1413.335	297.080	-9.679	1248.986	222.271	-54.687	1112.999	319.726	-49.210	995.648	324.394	-88.759	892.624	221.917	392.954	1428.564	339.364	230.910	1415.337	132.130	250.751	1312.886	266.886	397.588	1259.359	190.451	425.684	1119.895	273.789	438.578	1008.093	264.599	462.873	888.395	360.790	47.564	957.801	267.830	33.141	1045.701	181.006	199.166	990.946	286.135	354.824	1038.351	377.519	324.912	951.229	371.032	70.024	716.721	356.328	79.949	631.606	242.880	-13.534	640.623	223.395	17.622	496.500	277.083	48.454	360.399	268.928	51.489	287.284	175.722	-6.030	366.942	166.880	-1.640	293.088	209.373	34.473	100.051	144.982	95.359	54.513	333.035	4.714	35.725	374.883	346.846	745.224	369.063	336.355	661.448	232.135	395.186	750.220	228.355	383.413	662.820	236.086	358.916	501.485	266.054	353.047	377.887	265.670	354.163	302.998	150.864	363.458	301.989	211.539	349.724	95.177	149.815	283.979	42.510	324.279	386.820	35.167	217.906	167.872	500.731	239.436	209.861	501.969	246.835	129.512	116.367	242.488	256.529	109.826	238.911	51.461	1092.021	245.498	325.065	1099.030	181.217	147.726	1006.600	188.395	249.064	1004.307	279.049	86.970	871.163	288.438	296.518	866.612
233	2.32000	273.347	5.079	1424.337	336.576	166.131	1413.335	297.080	-9.679	1248.986	222.471	-54.969	1113.112	319.776	-49.267	995.718	324.352	-88.419	892.481	222.224	393.274	1428.497	339.351	230.564	1415.489	132.130	250.751	1312.886	267.143	397.560	1259.339	190.451	425.684	1119.895	273.836	438.514	1007.968	264.723	462.669	888.269	360.790	47.564	957.801	267.810	32.870	1045.489	181.070	199.002	990.803	286.683	354.756	1038.526	378.318	324.854	951.457	370.958	69.810	716.627	356.328	79.949	631.606	243.005	-13.457	640.720	223.294	17.695	496.594	277.136	48.385	360.474	268.873	51.322	287.237	175.779	-6.102	366.897	167.104	-1.586	293.065	209.427	34.379	99.918	144.881	95.344	54.492	333.153	4.798	35.794	374.883	346.846	745.224	369.203	336.269	661.550	232.193	395.163	750.305	228.154	383.291	662.974	236.406	358.858	501.551	265.994	353.010	377.817	265.614	354.159	303.042	150.852	363.580	302.063	211.549	349.878	95.117	149.745	283.927	42.409	324.379	386.799	35.350	218.160	167.915	500.720	239.087	209.887	501.819	246.916	129.508	116.425	242.488	256.529	109.826	238.956	51.390	1092.122	246.152	325.111	1099.166	181.282	147.830	1006.399	188.395	249.064	1004.307	279.275	87.029	871.040	288.984	296.568	866.744
234	2.33000	273.910	5.213	1424.437	336.576	166.131	1413.335	297.080	-9.679	1248.986	222.515	-54.984	1113.198	319.644	-49.307	995.895	324.235	-88.991	892.659	222.194	393.366	1428.523	339.564	230.421	1415.484	132.130	250.751	1312.886	267.308	397.719	1259.425	190.451	425.684	1119.895	273.909	438.399	1007.780	264.609	462.704	888.207	360.763	47.415	957.665	267.810	32.870	1045.489	181.070	199.002	990.803	286.683	354.756	1038.526	378.292	324.830	951.512	370.958	69.810	716.627	356.328	79.949	631.606	242.655	-13.916	640.545	223.424	17.104	497.068	277.087	48.329	360.543	268.877	51.180	287.278	175.621	-6.168	366.853	166.855	-1.753	293.064	209.427	34.379	99.918	144.982	95.359	54.513	333.153	4.798	35.794	375.018	346.744	745.422	369.203	336.269	661.550	232.367	395.078	750.236	228.154	383.291	662.974	236.617	358.744	501.657	266.055	353.011	377.739	265.628	354.054	303.030	150.951	363.588	302.128	211.695	349.816	95.056	149.815	283.979	42.510	324.275	386.770	35.236	217.803	167.582	500.809	239.087	209.887	501.819	246.916	129.508	116.425	242.400	256.498	109.704	239.113	51.273	1092.098	246.152	325.111	1099.166	181.282	147.830	1006.399	188.383	249.006	1004.425	279.205	87.030	871.010	288.936	296.570	866.768
235	2.34000	273.929	5.239	1424.510	336.574	165.971	1413.376	297.262	-9.771	1249.110	222.489	-54.890	1113.376	319.652	-49.516	995.904	323.805	-89.144	892.635	222.616	393.225	1428.421	339.587	230.635	1415.336	132.236	250.586	1312.912	267.308	397.719	1259.425	190.451	425.684	1119.895	273.860	438.528	1007.862	264.609	462.704	888.207	360.675	47.279	957.726	267.810	32.870	1045.489	181.063	198.893	990.939	286.655	354.490	1038.361	378.839	324.786	951.677	371.155	69.611	716.732	356.314	79.915	631.702	242.819	-13.712	640.597	223.200	17.001	496.542	276.976	48.310	360.575	268.877	51.180	287.278	175.564	-6.097	366.897	166.890	-1.805	292.967	209.427	34.379	99.918	144.881	95.344	54.492	333.153	4.798	35.794	375.103	346.679	745.505	369.010	336.083	661.259	232.351	395.165	750.356	228.306	383.345	662.906	236.677	358.626	501.552	266.055	353.011	377.739	265.628	354.054	303.030	151.047	363.461	302.158	211.695	349.816	95.056	149.633	283.869	42.387	324.275	386.770	35.236	217.815	167.705	500.731	239.087	209.887	501.819	247.045	129.437	116.452	242.488	256.529	109.826	239.113	51.273	1092.098	246.152	325.111	1099.166	181.217	147.726	1006.600	188.513	248.841	1004.218	279.294	86.870	871.075	289.152	296.402	866.785
